# xmcd
#
# Track frame offsets:
#	150
#	14937
#	32549
#	47685
#
# Disc length: 849 seconds
#
# Revision: 0
# Processed by: cddbd v1.5.2PL0 Copyright (c) Steve Scherf et al.
# Submitted via: audiograbber 1.83.01
#
DISCID=2d034f04
DTITLE=Tim Allen - Trucker
DYEAR=2000
DGENRE=Country
TTITLE0=I'm Just A Simple Man
TTITLE1=Forgotten Old Friends
TTITLE2=World In Motion
TTITLE3=The Greyhound Line
EXTD=Fernfahrer  Magazin "TRUCKER" präsentiert:
EXTT0=
EXTT1=
EXTT2=
EXTT3=
PLAYORDER=
